Coordinates
version=1
nRows=7
nColumns=46
inDegrees=yes

Units are S.I. units (second, meters, Newtons, ...)
Angles are in degrees.

endheader
time	pelvis_tilt	pelvis_list	pelvis_rotation	pelvis_tx	pelvis_ty	pelvis_tz	bb_angle	bb_tx	bb_ty	bb_tz	hip_flexion_r	hip_adduction_r	hip_rotation_r	knee_angle_r	knee_angle_r_beta	ankle_angle_r	subtalar_angle_r	mtp_angle_r	crank_angle_r	hip_flexion_l	hip_adduction_l	hip_rotation_l	knee_angle_l	knee_angle_l_beta	ankle_angle_l	subtalar_angle_l	mtp_angle_l	crank_angle_l	lumbar_extension	lumbar_bending	lumbar_rotation	arm_flex_r	arm_add_r	arm_rot_r	elbow_flex_r	pro_sup_r	wrist_flex_r	wrist_dev_r	arm_flex_l	arm_add_l	arm_rot_l	elbow_flex_l	pro_sup_l	wrist_flex_l	wrist_dev_l
      5.00500000	    -20.95130633	     -9.11894070	      4.56201375	      0.34966511	      1.14459852	     -0.26350181	      0.00000000	      0.50000000	      0.00000000	      0.25000000	     55.70481628	     -0.89429561	     -5.36804130	     93.91115037	      1.63905878	    -10.83687104	     -9.65452483	      0.00000000	      0.00000000	     49.31067124	     -4.42154610	     13.16864824	     45.41702295	      0.79267659	    -10.08266837	    -17.88574384	      0.00000000	      0.00000000	    -59.31581484	      4.33060232	     -2.66291280	     75.46968759	     -6.63134027	     48.44146567	     29.45825995	     47.02106129	      0.00000000	      0.00000000	     61.79228974	    -23.91860332	     34.34444578	     69.80619187	     49.41557172	      0.00000000	      0.00000000
      5.01000000	    -20.74384733	     -9.67562848	      4.28692846	      0.34949934	      1.14417026	     -0.26409864	      0.00000000	      0.50000000	      0.00000000	      0.25000000	     56.75118292	     -0.83844815	     -5.76493956	     95.84697916	      1.67284536	     -9.01413024	     -8.53725598	      0.00000000	      0.00000000	     47.78093097	     -5.38710643	     12.92317478	     43.27404113	      0.75527450	    -11.96740619	    -18.13729102	      0.00000000	      0.00000000	    -59.46146887	      4.75370889	     -2.86476977	     76.79174982	     -5.34483771	     52.35284228	     26.64283235	     47.22597434	      0.00000000	      0.00000000	     61.31998370	    -25.58377120	     34.55441438	     70.86897051	     49.63036908	      0.00000000	      0.00000000
      5.01500000	    -20.76872343	    -10.43141351	      3.92950729	      0.34928037	      1.14341974	     -0.26454600	      0.00000000	      0.50000000	      0.00000000	      0.25000000	     58.08086806	     -0.62084767	     -6.38494229	     97.60249787	      1.70348495	     -7.95391153	     -8.49081831	      0.00000000	      0.00000000	     46.61799962	     -6.59381349	     12.70589813	     41.38738839	      0.72234620	    -13.39254666	    -17.26013870	      0.00000000	      0.00000000	    -59.36513595	      5.21136885	     -2.22915623	     76.94356431	     -5.15408155	     52.43680336	     26.77658070	     47.25265856	      0.00000000	      0.00000000	     61.10917705	    -25.82078937	     34.48770489	     70.72458169	     49.60062668	      0.00000000	      0.00000000
      5.02000000	    -20.70238143	    -10.88238195	      3.44968315	      0.34926510	      1.14304728	     -0.26486709	      0.00000000	      0.50000000	      0.00000000	      0.25000000	     59.32846241	     -0.52864701	     -6.64797475	     99.31871831	      1.73343864	     -6.71511718	     -7.74570056	      0.00000000	      0.00000000	     45.20226296	     -7.69089648	     11.90346495	     39.37140326	      0.68716062	    -14.85428025	    -17.13991955	      0.00000000	      0.00000000	    -59.37083271	      5.37835073	     -1.81159429	     77.07742493	     -4.84249176	     52.73700638	     26.58700596	     47.26624696	      0.00000000	      0.00000000	     60.96753891	    -26.10303101	     34.40518940	     70.51328061	     49.55923026	      0.00000000	      0.00000000
      5.02500000	    -20.77294646	    -11.45903907	      3.14242035	      0.34895262	      1.14248277	     -0.26548140	      0.00000000	      0.50000000	      0.00000000	      0.25000000	     60.72693362	     -0.56462567	     -7.19986532	    100.86360572	      1.76040202	     -5.92677880	     -7.76369071	      0.00000000	      0.00000000	     44.03886910	     -8.71259134	     11.45100959	     37.52529964	      0.65494003	    -16.03308681	    -16.35332116	      0.00000000	      0.00000000	    -59.26623427	      5.80232202	     -1.32065423	     77.27045875	     -4.64379808	     52.85387846	     26.53657177	     47.27383604	      0.00000000	      0.00000000	     60.88357155	    -26.29945067	     34.41571794	     70.38327182	     49.54271341	      0.00000000	      0.00000000
      5.03000000	    -20.80369626	    -11.84247021	      2.74906521	      0.34878790	      1.14222690	     -0.26603880	      0.00000000	      0.50000000	      0.00000000	      0.25000000	     62.09050481	     -0.66983269	     -7.53368004	    102.29200000	      1.78533220	     -5.24870986	     -7.56955240	      0.00000000	      0.00000000	     42.73487151	     -9.67240258	     10.65871979	     35.69434830	      0.62298390	    -17.29772340	    -15.50536099	      0.00000000	      0.00000000	    -59.20499631	      6.00424191	     -0.94101849	     77.41609719	     -4.41267388	     53.00461582	     26.41811683	     47.27712479	      0.00000000	      0.00000000	     60.82014334	    -26.48699432	     34.45678358	     70.18567747	     49.51840080	      0.00000000	      0.00000000
      5.03500000	    -20.64069752	    -11.85140513	      2.24643383	      0.34892145	      1.14253049	     -0.26656752	      0.00000000	      0.50000000	      0.00000000	      0.25000000	     63.26161888	     -0.88024293	     -7.44639943	    103.63747966	      1.80881525	     -4.52070458	     -7.01373506	      0.00000000	      0.00000000	     40.98864122	    -10.37567643	      9.47544143	     33.77763907	      0.58953102	    -18.47600963	    -15.13793518	      0.00000000	      0.00000000	    -59.34483432	      5.86314311	     -0.83015239	     77.67885032	     -4.02647871	     53.43641510	     25.82757689	     47.25251471	      0.00000000	      0.00000000	     61.05810533	    -26.63935203	     34.66017516	     69.68278709	     49.46185997	      0.00000000	      0.00000000
